<svg width="75" height="52" viewBox="0 0 75 52" fill="none" xmlns="http://www.w3.org/2000/svg">
<path d="M1.463 33.7821C1.848 33.7821 2.167 34.1011 2.167 34.4861V40.9321C2.167 41.3281 1.848 41.6361 1.463 41.6361C1.078 41.6361 0.77 41.3281 0.77 40.9321V34.4861C0.77 34.1011 1.078 33.7821 1.463 33.7821ZM14.0206 33.8371C14.2736 33.9471 14.4386 34.2001 14.4386 34.4861V40.9321C14.4386 41.3281 14.1306 41.6361 13.7456 41.6361C13.3606 41.6361 13.0416 41.3281 13.0416 40.9321V36.1251L9.55462 39.4801C9.30162 39.7331 8.83962 39.7331 8.58662 39.4801L5.09962 36.1251V40.9321C5.09962 41.3281 4.78062 41.6361 4.39562 41.6361C4.01062 41.6361 3.70262 41.3281 3.70262 40.9321V34.4861C3.70262 34.2001 3.86762 33.9471 4.12062 33.8371C4.38462 33.7271 4.68162 33.7821 4.87962 33.9801L9.07062 38.0061L13.2616 33.9801C13.4596 33.7821 13.7566 33.7271 14.0206 33.8371ZM22.6909 35.2781L25.1439 40.6461C25.2979 40.9981 25.1439 41.4161 24.7919 41.5701C24.7039 41.6141 24.6049 41.6361 24.5059 41.6361C24.2419 41.6361 23.9889 41.4821 23.8679 41.2291L21.4259 35.8501C21.2389 35.4431 20.8209 35.1901 20.3809 35.1901C19.9299 35.1901 19.5229 35.4431 19.3359 35.8501L16.8829 41.2291C16.7289 41.5811 16.3109 41.7351 15.9589 41.5701C15.6069 41.4161 15.4529 40.9981 15.6179 40.6461L18.0599 35.2781C18.4779 34.3761 19.3799 33.7821 20.3809 33.7821C21.3709 33.7821 22.2839 34.3761 22.6909 35.2781ZM20.3809 37.8521C21.0739 37.8521 21.6349 38.4131 21.6349 39.1061C21.6349 39.7991 21.0739 40.3601 20.3809 40.3601C19.6879 40.3601 19.1269 39.7991 19.1269 39.1061C19.1269 38.4131 19.6879 37.8521 20.3809 37.8521ZM33.3545 37.3131C33.7395 37.3131 34.0475 37.6321 34.0475 38.0171V40.0081C34.0475 40.1951 33.9705 40.3821 33.8385 40.5141C33.0685 41.2511 31.9795 41.6361 30.7035 41.6361H30.1425C28.8555 41.6361 27.7665 41.2401 26.9965 40.4921C26.6225 40.1401 26.3365 39.7111 26.1495 39.2271C25.9625 38.7541 25.8745 38.2481 25.8745 37.7091C25.8745 37.1811 25.9625 36.6641 26.1495 36.2021C26.3365 35.7181 26.6225 35.2891 26.9965 34.9261C27.7665 34.1781 28.8555 33.7821 30.1425 33.7821H30.7035C31.2535 33.7821 31.7815 33.8591 32.2545 34.0021C32.7165 34.1451 33.1455 34.3541 33.5085 34.6401C33.8165 34.8711 33.8715 35.3111 33.6405 35.6191C33.4095 35.9271 32.9695 35.9821 32.6615 35.7511C32.1775 35.3771 31.4955 35.1791 30.7035 35.1791H30.1425C28.3715 35.1791 27.2715 36.1581 27.2715 37.7091C27.2715 39.2711 28.3715 40.2391 30.1425 40.2391H30.7035C31.4955 40.2391 32.1555 40.0411 32.6505 39.6781V38.7211H29.9665C29.5815 38.7211 29.2625 38.4021 29.2625 38.0171C29.2625 37.6321 29.5815 37.3131 29.9665 37.3131H33.3545ZM36.0636 33.7821C36.4486 33.7821 36.7676 34.1011 36.7676 34.4861V40.9321C36.7676 41.3281 36.4486 41.6361 36.0636 41.6361C35.6786 41.6361 35.3706 41.3281 35.3706 40.9321V34.4861C35.3706 34.1011 35.6786 33.7821 36.0636 33.7821ZM47.1142 33.8481C47.4662 34.0131 47.6202 34.4201 47.4662 34.7721L45.0132 40.1511C44.6062 41.0531 43.6932 41.6361 42.7032 41.6361C41.7022 41.6361 40.8002 41.0531 40.3822 40.1511L37.9292 34.7721C37.7752 34.4201 37.9292 34.0131 38.2812 33.8481C38.6332 33.6941 39.0512 33.8481 39.2052 34.2001L41.6582 39.5681C41.8452 39.9751 42.2522 40.2391 42.7032 40.2391C43.1432 40.2391 43.5502 39.9751 43.7372 39.5681L46.1902 34.2001C46.3552 33.8481 46.7622 33.6941 47.1142 33.8481ZM49.3302 33.7821C49.7152 33.7821 50.0342 34.1011 50.0342 34.4861V40.9321C50.0342 41.3281 49.7152 41.6361 49.3302 41.6361C48.9452 41.6361 48.6372 41.3281 48.6372 40.9321V34.4861C48.6372 34.1011 48.9452 33.7821 49.3302 33.7821ZM58.6978 33.7821C59.0828 33.7821 59.3908 34.1011 59.3908 34.4861C59.3908 34.8711 59.0828 35.1791 58.6978 35.1791H55.9588V40.9321C55.9588 41.3281 55.6508 41.6361 55.2658 41.6361C54.8808 41.6361 54.5618 41.3281 54.5618 40.9321V35.1791H51.8338C51.4488 35.1791 51.1298 34.8711 51.1298 34.4861C51.1298 34.1011 51.4488 33.7821 51.8338 33.7821H58.6978ZM68.0428 33.7821C68.4278 33.7821 68.7468 34.1011 68.7468 34.4861C68.7468 34.8711 68.4278 35.1791 68.0428 35.1791H61.1788C60.7938 35.1791 60.4858 34.8711 60.4858 34.4861C60.4858 34.1011 60.7938 33.7821 61.1788 33.7821H68.0428ZM68.0428 40.2391C68.4278 40.2391 68.7468 40.5471 68.7468 40.9321C68.7468 41.3281 68.4278 41.6361 68.0428 41.6361H61.1788C60.7938 41.6361 60.4858 41.3281 60.4858 40.9321C60.4858 40.5471 60.7938 40.2391 61.1788 40.2391H68.0428ZM68.0428 37.0161C68.4278 37.0161 68.7468 37.3241 68.7468 37.7091C68.7468 38.0941 68.4278 38.4131 68.0428 38.4131H61.1788C60.7938 38.4131 60.4858 38.0941 60.4858 37.7091C60.4858 37.3241 60.7938 37.0161 61.1788 37.0161H68.0428Z" fill="black"/>
<g filter="url(#filter0_d_2_30)">
<path d="M29.6586 3.37132C30.3716 1.43871 32.3801 0.505005 34.1447 1.28583C35.9094 2.06666 36.7619 4.26634 36.049 6.19895L28.4991 26.6642C27.7862 28.5968 25.7777 29.5305 24.013 28.7497C22.2484 27.9688 21.3958 25.7692 22.1088 23.8365L29.6586 3.37132Z" fill="url(#paint0_linear_2_30)"/>
<path d="M24.9013 29.2394C22.9983 29.203 21.4826 27.484 21.5158 25.4C21.5491 23.3159 23.1186 21.6559 25.0216 21.6923L45.4382 22.0826C47.3411 22.119 48.8569 23.8379 48.8236 25.922C48.7904 28.0061 47.2209 29.6661 45.3179 29.6297L24.9013 29.2394Z" fill="#C139C9"/>
<path d="M40.2432 23.4257C39.263 21.639 39.7909 19.3203 41.4222 18.2468C43.0536 17.1733 45.1708 17.7514 46.151 19.538L48.4844 23.7911C49.4646 25.5778 48.9368 27.8964 47.3054 28.97C45.674 30.0435 43.5569 29.4654 42.5766 27.6787L40.2432 23.4257Z" fill="url(#paint1_linear_2_30)"/>
<path d="M42.1139 13.8076C42.1139 15.737 40.5498 17.3011 38.6203 17.3011C36.6908 17.3011 35.1266 15.737 35.1266 13.8076C35.1266 11.8782 36.6908 10.3141 38.6203 10.3141C40.5498 10.3141 42.1139 11.8782 42.1139 13.8076Z" fill="#4ED5FF"/>
</g>
<defs>
<filter id="filter0_d_2_30" x="15.9367" y="0" width="38.3797" height="39.6078" filterUnits="userSpaceOnUse" color-interpolation-filters="sRGB">
<feFlood flood-opacity="0" result="BackgroundImageFix"/>
<feColorMatrix in="SourceAlpha" type="matrix" values="0 0 0 0 0 0 0 0 0 0 0 0 0 0 0 0 0 0 127 0" result="hardAlpha"/>
<feOffset dy="4"/>
<feGaussianBlur stdDeviation="2"/>
<feComposite in2="hardAlpha" operator="out"/>
<feColorMatrix type="matrix" values="0 0 0 0 0 0 0 0 0 0 0 0 0 0 0 0 0 0 0.25 0"/>
<feBlend mode="normal" in2="BackgroundImageFix" result="effect1_dropShadow_2_30"/>
<feBlend mode="normal" in="SourceGraphic" in2="effect1_dropShadow_2_30" result="shape"/>
</filter>
<linearGradient id="paint0_linear_2_30" x1="35.1266" y1="0" x2="35.1266" y2="31.6078" gradientUnits="userSpaceOnUse">
<stop stop-color="#B366FF"/>
<stop offset="1" stop-color="#6B3D99"/>
</linearGradient>
<linearGradient id="paint1_linear_2_30" x1="35.1266" y1="0" x2="35.1266" y2="31.6078" gradientUnits="userSpaceOnUse">
<stop stop-color="#583CC9"/>
<stop offset="1" stop-color="#2B1E63"/>
</linearGradient>
</defs>
</svg>
